<svg width="25" height="25" viewBox="0 0 25 25" fill="none" xmlns="http://www.w3.org/2000/svg">
<path d="M2.41313 16.6667V2.38095H0V0H3.6197C3.9397 0 4.24659 0.125425 4.47287 0.348682C4.69914 0.57194 4.82626 0.874742 4.82626 1.19048V15.4762H19.8335L22.2466 5.95238H7.23939V3.57143H23.7935C23.9769 3.57143 24.1579 3.61269 24.3227 3.69207C24.4875 3.77144 24.6318 3.88685 24.7446 4.02951C24.8575 4.17217 24.9359 4.33833 24.9738 4.51537C25.0118 4.69241 25.0084 4.87566 24.9638 5.05119L21.9474 16.956C21.8821 17.2134 21.7314 17.4419 21.5193 17.6052C21.3073 17.7684 21.046 17.8571 20.7771 17.8571H3.6197C3.29969 17.8571 2.9928 17.7317 2.76653 17.5085C2.54025 17.2852 2.41313 16.9824 2.41313 16.6667ZM4.82626 25C4.18626 25 3.57247 24.7491 3.11992 24.3026C2.66737 23.8561 2.41313 23.2505 2.41313 22.619C2.41313 21.9876 2.66737 21.382 3.11992 20.9355C3.57247 20.4889 4.18626 20.2381 4.82626 20.2381C5.46626 20.2381 6.08005 20.4889 6.5326 20.9355C6.98515 21.382 7.23939 21.9876 7.23939 22.619C7.23939 23.2505 6.98515 23.8561 6.5326 24.3026C6.08005 24.7491 5.46626 25 4.82626 25ZM19.305 25C18.665 25 18.0513 24.7491 17.5987 24.3026C17.1462 23.8561 16.8919 23.2505 16.8919 22.619C16.8919 21.9876 17.1462 21.382 17.5987 20.9355C18.0513 20.4889 18.665 20.2381 19.305 20.2381C19.945 20.2381 20.5588 20.4889 21.0114 20.9355C21.4639 21.382 21.7182 21.9876 21.7182 22.619C21.7182 23.2505 21.4639 23.8561 21.0114 24.3026C20.5588 24.7491 19.945 25 19.305 25Z" fill="white"/>
</svg>
