<svg width="28" height="25" viewBox="0 0 28 25" fill="none" xmlns="http://www.w3.org/2000/svg">
<path d="M25.1276 2.37623C28.1812 5.44358 28.2865 10.3286 25.4462 13.515L13.9984 25L2.55332 13.515C-0.287027 10.3286 -0.180379 5.43547 2.87191 2.37623C5.92961 -0.685719 10.8206 -0.788505 14.0011 2.06787C17.1722 -0.784448 22.0726 -0.689776 25.1276 2.37623ZM4.78213 4.28994C2.77067 6.30509 2.66942 9.53068 4.52293 11.6621L13.9998 21.1712L23.4766 11.6635C25.3314 9.53068 25.2302 6.30915 23.216 4.28724C21.2086 2.27209 17.9768 2.17471 15.8546 4.03568L10.182 9.72003L8.27181 7.80766L12.0855 3.98429L11.9748 3.89097C9.84858 2.18012 6.74094 2.32619 4.78213 4.28994Z" fill="#06415D"/>
</svg>
