<svg width="33" height="32" viewBox="0 0 33 32" fill="none" xmlns="http://www.w3.org/2000/svg">
<path d="M16.9119 17.6V22.4L10.5119 16L16.9119 9.6V14.4L23.3119 14.4V17.6H16.9119ZM16.9119 32C8.07986 32 0.911865 24.832 0.911865 16C0.911865 7.168 8.07986 0 16.9119 0C25.7439 0 32.9119 7.168 32.9119 16C32.9119 24.832 25.7439 32 16.9119 32ZM16.9119 3.2C9.83986 3.2 4.11186 8.928 4.11186 16C4.11186 23.072 9.83986 28.8 16.9119 28.8C23.9839 28.8 29.7119 23.072 29.7119 16C29.7119 8.928 23.9839 3.2 16.9119 3.2Z" fill="#06415D"/>
</svg>
