<svg width="33" height="32" viewBox="0 0 33 32" fill="none" xmlns="http://www.w3.org/2000/svg">
<path d="M16.8893 14.4V9.6L23.2893 16L16.8893 22.4V17.6H10.4893V14.4H16.8893ZM16.8893 0C25.7213 0 32.8893 7.168 32.8893 16C32.8893 24.832 25.7213 32 16.8893 32C8.05728 32 0.889282 24.832 0.889282 16C0.889282 7.168 8.05728 0 16.8893 0ZM16.8893 28.8C23.9613 28.8 29.6893 23.072 29.6893 16C29.6893 8.928 23.9613 3.2 16.8893 3.2C9.81728 3.2 4.08928 8.928 4.08928 16C4.08928 23.072 9.81728 28.8 16.8893 28.8Z" fill="#06415D"/>
</svg>
