<svg width="26" height="23" viewBox="0 0 26 23" fill="none" xmlns="http://www.w3.org/2000/svg">
<path fill-rule="evenodd" clip-rule="evenodd" d="M13 2.55556C12.5755 2.05574 12.0807 1.61931 11.5348 1.25529C10.3283 0.450848 8.8724 0 7.375 0C3.525 0 0.5 3.03324 0.5 6.89373C0.5 8.26544 0.819678 9.56802 1.36729 10.8072C3.06575 14.6543 6.9572 17.9008 10.3069 20.6953C11.2712 21.4998 12.1907 22.2668 13 23C13.8093 22.2668 14.7288 21.4998 15.6931 20.6953C19.0427 17.9008 22.9341 14.6544 24.6326 10.8074C25.1803 9.56816 25.5 8.26551 25.5 6.89373C25.5 3.03324 22.475 0 18.625 0C17.1276 0 15.6717 0.450848 14.4652 1.25529C13.9193 1.61931 13.4245 2.05574 13 2.55556ZM13 19.6394C13.4035 19.2975 13.8159 18.9528 14.2277 18.6087C14.5765 18.3171 14.9249 18.026 15.267 17.7373C16.6363 16.5816 17.9767 15.4075 19.1636 14.177C20.6325 12.6543 21.7241 11.1886 22.3598 9.74202C22.7791 8.7869 23 7.84086 23 6.89373C23 4.49081 21.1399 2.55556 18.625 2.55556C17.1395 2.55556 15.7531 3.21199 14.8879 4.23087L13 6.45385L11.1121 4.23087C10.2469 3.21199 8.86054 2.55556 7.375 2.55556C4.86011 2.55556 3 4.49081 3 6.89373C3 7.84086 3.22093 8.7869 3.64017 9.74202C4.27587 11.1886 5.36753 12.6543 6.83637 14.177C8.0233 15.4075 9.36369 16.5816 10.733 17.7373C11.0751 18.026 11.4235 18.3171 11.7723 18.6087C12.1841 18.9528 12.5965 19.2975 13 19.6394Z" fill="#2E3A59"/>
</svg>
